HIERARCHY
ROOT Hips
{
    OFFSET   0.000000   0.000000   0.000000
    CHANNELS 6 Xposition Yposition Zposition Zrotation Xrotation Yrotation
    JOINT Chest
    {
        OFFSET   0.000000   8.007230   0.000000
        CHANNELS 3 Zrotation Xrotation Yrotation
        JOINT Chest2
        {
            OFFSET   0.000000  22.077100   0.000000
            CHANNELS 3 Zrotation Xrotation Yrotation
            JOINT Neck
            {
                OFFSET   0.000000  23.255100   0.000000
                CHANNELS 3 Zrotation Xrotation Yrotation
                JOINT Head
                {
                    OFFSET   0.000000  14.370100   1.956600
                    CHANNELS 3 Zrotation Xrotation Yrotation
                    End Site
                    {
                        OFFSET   0.000000  19.566000   0.000000
                    }
                }
            }
            JOINT LeftCollar
            {
                OFFSET   3.911900  19.017000  -0.467063
                CHANNELS 3 Zrotation Xrotation Yrotation
                JOINT LeftShoulder
                {
                    OFFSET  10.383700   0.000000   0.000000
                    CHANNELS 3 Zrotation Xrotation Yrotation
                    JOINT LeftElbow
                    {
                        OFFSET  26.662100   0.001193   0.000980
                        CHANNELS 3 Zrotation Xrotation Yrotation
                        JOINT LeftWrist
                        {
                            OFFSET  28.869000  -0.000059  -0.000082
                            CHANNELS 3 Zrotation Xrotation Yrotation
                            JOINT LeftFinger0
                            {
                                OFFSET   2.044650  -2.323450   3.252850
                                CHANNELS 3 Zrotation Xrotation Yrotation
                                JOINT LeftFinger01
                                {
                                    OFFSET   3.088130   0.000000   0.000000
                                    CHANNELS 3 Zrotation Xrotation Yrotation
                                    JOINT LeftFinger02
                                    {
                                        OFFSET   2.639460   0.000000   0.000000
                                        CHANNELS 3 Zrotation Xrotation Yrotation
                                        End Site
                                        {
                                            OFFSET   2.582190   0.000000   0.000000
                                        }
                                    }
                                }
                            }
                            JOINT LeftFinger1
                            {
                                OFFSET   8.364480   0.000000   3.252850
                                CHANNELS 3 Zrotation Xrotation Yrotation
                                JOINT LeftFinger11
                                {
                                    OFFSET   4.646930   0.000000   0.000000
                                    CHANNELS 3 Zrotation Xrotation Yrotation
                                    JOINT LeftFinger12
                                    {
                                        OFFSET   2.323470   0.000000   0.000000
                                        CHANNELS 3 Zrotation Xrotation Yrotation
                                        End Site
                                        {
                                            OFFSET   2.273050   0.000000   0.000000
                                        }
                                    }
                                }
                            }
                            JOINT LeftFinger2
                            {
                                OFFSET   8.364490   0.000016   1.078090
                                CHANNELS 3 Zrotation Xrotation Yrotation
                                JOINT LeftFinger21
                                {
                                    OFFSET   5.111610   0.000000   0.000000
                                    CHANNELS 3 Zrotation Xrotation Yrotation
                                    JOINT LeftFinger22
                                    {
                                        OFFSET   2.788150   0.000016   0.000000
                                        CHANNELS 3 Zrotation Xrotation Yrotation
                                        End Site
                                        {
                                            OFFSET   2.727660   0.000000   0.000000
                                        }
                                    }
                                }
                            }
                            JOINT LeftFinger3
                            {
                                OFFSET   7.899780   0.000015  -1.078090
                                CHANNELS 3 Zrotation Xrotation Yrotation
                                JOINT LeftFinger31
                                {
                                    OFFSET   4.646930   0.000000   0.000000
                                    CHANNELS 3 Zrotation Xrotation Yrotation
                                    JOINT LeftFinger32
                                    {
                                        OFFSET   2.323470   0.000000   0.000000
                                        CHANNELS 3 Zrotation Xrotation Yrotation
                                        End Site
                                        {
                                            OFFSET   2.273050   0.000000   0.000000
                                        }
                                    }
                                }
                            }
                            JOINT LeftFinger4
                            {
                                OFFSET   7.435090   0.000000  -3.252850
                                CHANNELS 3 Zrotation Xrotation Yrotation
                                JOINT LeftFinger41
                                {
                                    OFFSET   3.717550   0.000000   0.000000
                                    CHANNELS 3 Zrotation Xrotation Yrotation
                                    JOINT LeftFinger42
                                    {
                                        OFFSET   1.858770   0.000000   0.000000
                                        CHANNELS 3 Zrotation Xrotation Yrotation
                                        End Site
                                        {
                                            OFFSET   1.818440   0.000000   0.000000
                                        }
                                    }
                                }
                            }
                        }
                    }
                }
            }
            JOINT RightCollar
            {
                OFFSET  -3.911910  19.017000  -0.467062
                CHANNELS 3 Zrotation Xrotation Yrotation
                JOINT RightShoulder
                {
                    OFFSET -10.383700   0.000014   0.000000
                    CHANNELS 3 Zrotation Xrotation Yrotation
                    JOINT RightElbow
                    {
                        OFFSET -26.662100   0.001225   0.001091
                        CHANNELS 3 Zrotation Xrotation Yrotation
                        JOINT RightWrist
                        {
                            OFFSET -28.869000  -0.000020  -0.000085
                            CHANNELS 3 Zrotation Xrotation Yrotation
                            JOINT RightFinger0
                            {
                                OFFSET  -2.044650  -2.323490   3.252850
                                CHANNELS 3 Zrotation Xrotation Yrotation
                                JOINT RightFinger01
                                {
                                    OFFSET  -3.088130   0.000000   0.000000
                                    CHANNELS 3 Zrotation Xrotation Yrotation
                                    JOINT RightFinger02
                                    {
                                        OFFSET  -2.639460   0.000000   0.000000
                                        CHANNELS 3 Zrotation Xrotation Yrotation
                                        End Site
                                        {
                                            OFFSET  -2.582190   0.000000   0.000000
                                        }
                                    }
                                }
                            }
                            JOINT RightFinger1
                            {
                                OFFSET  -8.364480   0.000000   3.252850
                                CHANNELS 3 Zrotation Xrotation Yrotation
                                JOINT RightFinger11
                                {
                                    OFFSET  -4.646930   0.000000   0.000000
                                    CHANNELS 3 Zrotation Xrotation Yrotation
                                    JOINT RightFinger12
                                    {
                                        OFFSET  -2.323470   0.000000   0.000000
                                        CHANNELS 3 Zrotation Xrotation Yrotation
                                        End Site
                                        {
                                            OFFSET  -2.273050   0.000000   0.000000
                                        }
                                    }
                                }
                            }
                            JOINT RightFinger2
                            {
                                OFFSET  -8.364480   0.000000   1.078090
                                CHANNELS 3 Zrotation Xrotation Yrotation
                                JOINT RightFinger21
                                {
                                    OFFSET  -5.111620   0.000000   0.000000
                                    CHANNELS 3 Zrotation Xrotation Yrotation
                                    JOINT RightFinger22
                                    {
                                        OFFSET  -2.788160   0.000000   0.000000
                                        CHANNELS 3 Zrotation Xrotation Yrotation
                                        End Site
                                        {
                                            OFFSET  -2.727660   0.000000   0.000000
                                        }
                                    }
                                }
                            }
                            JOINT RightFinger3
                            {
                                OFFSET  -7.899780   0.000000  -1.078090
                                CHANNELS 3 Zrotation Xrotation Yrotation
                                JOINT RightFinger31
                                {
                                    OFFSET  -4.646930   0.000000   0.000000
                                    CHANNELS 3 Zrotation Xrotation Yrotation
                                    JOINT RightFinger32
                                    {
                                        OFFSET  -2.323470   0.000000   0.000000
                                        CHANNELS 3 Zrotation Xrotation Yrotation
                                        End Site
                                        {
                                            OFFSET  -2.273050   0.000000   0.000000
                                        }
                                    }
                                }
                            }
                            JOINT RightFinger4
                            {
                                OFFSET  -7.435090   0.000000  -3.252850
                                CHANNELS 3 Zrotation Xrotation Yrotation
                                JOINT RightFinger41
                                {
                                    OFFSET  -3.717550   0.000000   0.000000
                                    CHANNELS 3 Zrotation Xrotation Yrotation
                                    JOINT RightFinger42
                                    {
                                        OFFSET  -1.858760   0.000000   0.000000
                                        CHANNELS 3 Zrotation Xrotation Yrotation
                                        End Site
                                        {
                                            OFFSET  -1.818440   0.000000   0.000000
                                        }
                                    }
                                }
                            }
                        }
                    }
                }
            }
        }
    }
    JOINT LeftHip
    {
        OFFSET   9.783030   0.000000   0.000000
        CHANNELS 3 Zrotation Xrotation Yrotation
        JOINT LeftKnee
        {
            OFFSET   0.000063 -41.789100   0.000608
            CHANNELS 3 Zrotation Xrotation Yrotation
            JOINT LeftAnkle
            {
                OFFSET   0.000048 -41.133200  -0.000184
                CHANNELS 3 Zrotation Xrotation Yrotation
                JOINT LeftToe
                {
                    OFFSET   0.000000  -6.358960  14.674500
                    CHANNELS 3 Zrotation Xrotation Yrotation
                    End Site
                    {
                        OFFSET   0.000000   0.000000   3.913200
                    }
                }
            }
        }
    }
    JOINT RightHip
    {
        OFFSET  -9.783030   0.000000   0.000000
        CHANNELS 3 Zrotation Xrotation Yrotation
        JOINT RightKnee
        {
            OFFSET   0.000071 -41.789100   0.001239
            CHANNELS 3 Zrotation Xrotation Yrotation
            JOINT RightAnkle
            {
                OFFSET   0.000037 -41.133200  -0.000166
                CHANNELS 3 Zrotation Xrotation Yrotation
                JOINT RightToe
                {
                    OFFSET   0.000000  -6.358960  14.674500
                    CHANNELS 3 Zrotation Xrotation Yrotation
                    End Site
                    {
                        OFFSET   0.000000   0.000000   3.913200
                    }
                }
            }
        }
    }
}
MOTION
Frames: 6
Frame Time:   0.016667
 -0.049920  90.009100   0.875004  -0.438450  -2.238590  -0.473742  -0.076231   1.099770  -1.162690  -0.130155   2.200840  -2.324550   2.960180  -0.204101   0.001518   4.875060  -0.411374   6.201020  -2.650490   0.626700   6.566550 -77.292300  18.576600   3.631350  -3.698230  -7.337440 -13.815900   8.538330  -3.396100   8.469460  48.834300  38.674500 -78.422100 -20.522100   0.003604   0.001410  -5.261030   0.000347  -0.002600 -14.172500   2.026020  -7.969350 -11.717200   0.001826   0.002143  -8.202030   0.001903  -0.002369 -18.785300   0.351902  -1.039410 -18.788500   0.003593  -0.001903 -12.513100   0.003779  -0.000642 -16.380500  -0.252234   0.858009 -16.382400   0.002240  -0.004727 -10.910700  -0.001340   0.000131 -19.360300  -1.162300   3.320280 -29.090900   0.001669   0.002159 -19.374500   0.000392   0.001784  10.642700   3.584730   6.994120  70.229900   9.651730  -2.061430   2.559840 -11.057700   8.363690 -15.459400 -19.411300   3.326910 -35.946900  26.606000  65.523500  28.511400  -0.001655  -0.016644   9.255670  -0.008271  -0.012048  20.576100  -1.709230  -4.542780  16.890500   0.003872  -0.001054  11.823400   0.000000   0.002162  17.544500  -1.732400  -5.462160  17.627100  -0.000347  -0.001972  11.739700   0.000160   0.005127  17.514900  -3.435220 -10.750700  17.838200   0.003194  -0.003848  11.880300  -0.011554   0.001319  27.856800  -5.324570  -9.958690  42.481500  -0.004921  -0.003554  28.292700  -0.009331  -0.000951   0.022056   1.505190  -0.609880   0.638732   1.694550  15.106100  -5.011420  -3.254860   5.545410  -0.000000   0.000000  -0.000000   2.013940   0.247134  -5.588910  -1.343190   5.202720  -9.147180  -9.034020   0.029412  -1.994900   0.000000   0.000000  -0.000000
 -0.049735  90.009100   0.874992  -0.438175  -2.246820  -0.464981  -0.078187   1.121250  -1.162370  -0.133639   2.243840  -2.323870   2.966680  -0.192471   0.001779   4.880910  -0.387584   6.284700  -2.648320   0.611110   6.562780 -77.271600  18.617300   3.631700  -3.706500  -7.365560 -13.819100   8.534670  -3.414850   8.439440  48.858500  38.667200 -78.479200 -20.467500   0.003597   0.001393  -5.233730   0.000347  -0.002588 -14.170200   2.047630  -8.054680 -11.716600   0.001826   0.002143  -8.201610   0.001901  -0.002369 -18.825600   0.355947  -1.047430 -18.828900   0.003593  -0.001903 -12.540000   0.003779  -0.000643 -16.387800  -0.240549   0.817880 -16.389600   0.002237  -0.004729 -10.915500  -0.001342   0.000133 -19.367100  -1.162120   3.309610 -29.101000   0.001669   0.002159 -19.381200   0.000392   0.001786  10.644300   3.568940   6.995810  70.224000   9.651690  -2.067570   2.561590 -11.043500   8.369580 -15.436400 -19.393800   3.321470 -35.897800  26.586300  65.520900  28.576200  -0.001656  -0.016651   9.288100  -0.008276  -0.012043  20.607100  -1.708720  -4.533460  16.915700   0.003872  -0.001061  11.841000   0.000000   0.002162  17.578500  -1.747350  -5.498750  17.662500  -0.000351  -0.001973  11.763200   0.000160   0.005125  17.543700  -3.454630 -10.789700  17.869600   0.003195  -0.003850  11.901200  -0.011559   0.001319  27.869400  -5.348490  -9.994970  42.505300  -0.004922  -0.003551  28.308500  -0.009334  -0.000951   0.021830   1.515940  -0.609841   0.639282   1.693780  15.110000  -5.018780  -3.254590   5.533590   0.000000   0.000000  -0.000000   2.014640   0.259180  -5.594960  -1.342940   5.200060  -9.147230  -9.034020   0.029568  -1.996110   0.000000   0.000000   0.000000
 -0.049482  90.009100   0.874980  -0.437519  -2.259700  -0.445695  -0.081688   1.158510  -1.161290  -0.139909   2.318420  -2.321630   2.975800  -0.171910   0.002039   4.888790  -0.345777   6.433770  -2.644820   0.584183   6.556130 -77.231800  18.691000   3.629660  -3.724100  -7.416570 -13.829600   8.531260  -3.442280   8.392930  48.882600  38.659900 -78.536300 -20.389800   0.003582   0.001376  -5.194900   0.000346  -0.002571 -14.167800   2.069230  -8.140010 -11.712400   0.001825   0.002144  -8.198670   0.001895  -0.002368 -18.888700   0.361246  -1.055580 -18.892100   0.003592  -0.001903 -12.582100   0.003778  -0.000644 -16.404400  -0.222755   0.756572 -16.405900   0.002232  -0.004734 -10.926300  -0.001349   0.000140 -19.384900  -1.161930   3.294900 -29.127500   0.001670   0.002161 -19.398900   0.000392   0.001789  10.647300   3.541020   6.999320  70.209600   9.651630  -2.077670   2.567020 -11.020000   8.379110 -15.385200 -19.352900   3.304030 -35.825000  26.559700  65.517800  28.675300  -0.001657  -0.016666   9.337700  -0.008284  -0.012038  20.643700  -1.708210  -4.524130  16.945400   0.003873  -0.001075  11.861800   0.000000   0.002162  17.615000  -1.767890  -5.549790  17.700700  -0.000358  -0.001979  11.788600   0.000159   0.005121  17.570900  -3.477570 -10.844000  17.901100   0.003196  -0.003855  11.922100  -0.011570   0.001320  27.879600  -5.377540 -10.045900  42.529000  -0.004926  -0.003549  28.324300  -0.009341  -0.000951   0.021689   1.534650  -0.609804   0.640961   1.688600  15.115800  -5.030710  -3.252370   5.512090  -0.000000   0.000000  -0.000000   2.015820   0.275805  -5.605980  -1.342690   5.197410  -9.147290  -9.034060   0.029724  -2.004580  -0.000000   0.000000   0.000000
 -0.049398  90.009100   0.875016  -0.440876  -2.267690  -0.421766  -0.084957   1.191030  -1.159100  -0.145837   2.383540  -2.317170   2.979820  -0.152839   0.001994   4.892220  -0.307618   6.572440  -2.643920   0.559355   6.549930 -77.187800  18.764100   3.617810  -3.744780  -7.464240 -13.847600   8.532220  -3.454610   8.356960  48.934700  38.672900 -78.523400 -20.352200   0.003561   0.001377  -5.176100   0.000335  -0.002564 -14.143800   2.060810  -8.121210 -11.690200   0.001820   0.002145  -8.183130   0.001886  -0.002365 -18.929100   0.362709  -1.055720 -18.932400   0.003589  -0.001904 -12.609000   0.003776  -0.000645 -16.426300  -0.210005   0.711986 -16.427700   0.002225  -0.004741 -10.940800  -0.001361   0.000154 -19.415200  -1.161990   3.289430 -29.172900   0.001674   0.002166 -19.429100   0.000393   0.001793  10.651900   3.514840   7.004150  70.189400   9.659620  -2.087480   2.576140 -11.000300   8.387790 -15.312600 -19.292100   3.271150 -35.784100  26.551500  65.518400  28.736600  -0.001652  -0.016677   9.368310  -0.008293  -0.012042  20.647500  -1.708570  -4.524840  16.948400   0.003874  -0.001088  11.863900   0.000000   0.002155  17.616000  -1.775360  -5.571050  17.702600  -0.000363  -0.001989  11.789900   0.000156   0.005115  17.562500  -3.481490 -10.866200  17.894000   0.003196  -0.003863  11.917400  -0.011586   0.001320  27.862900  -5.383420 -10.068300  42.507300  -0.004931  -0.003550  28.309800  -0.009351  -0.000956   0.024663   1.551630  -0.614362   0.643274   1.673740  15.120000  -5.039070  -3.244950   5.492020  -0.000000   0.000000  -0.000000   2.018250   0.281441  -5.616390  -1.343770   5.199670  -9.139660  -9.037970   0.029387  -2.029760   0.000000   0.000000   0.000000
 -0.049381  90.009100   0.875051  -0.446477  -2.275820  -0.389546  -0.088592   1.225970  -1.156570  -0.152458   2.453490  -2.312020   2.981200  -0.132652   0.001948   4.891550  -0.267224   6.724110  -2.645920   0.536004   6.543570 -77.133200  18.841600   3.594630  -3.772950  -7.520510 -13.873500   8.542100  -3.465580   8.337550  49.009000  38.693400 -78.491800 -20.337600   0.003536   0.001377  -5.168830   0.000321  -0.002552 -14.107100   2.044390  -8.078760 -11.660300   0.001813   0.002148  -8.162230   0.001875  -0.002360 -18.967600   0.362918  -1.055740 -18.970900   0.003585  -0.001907 -12.634600   0.003774  -0.000647 -16.454500  -0.203363   0.688579 -16.455800   0.002216  -0.004752 -10.959500  -0.001377   0.000173 -19.448400  -1.162340   3.288000 -29.222600   0.001680   0.002174 -19.462200   0.000395   0.001798  10.658100   3.487720   7.008790  70.163500   9.682270  -2.093410   2.589250 -10.983800   8.392680 -15.234000 -19.225400   3.230910 -35.754800  26.549300  65.518500  28.786100  -0.001641  -0.016693   9.393060  -0.008305  -0.012048  20.650900  -1.711070  -4.529820  16.951400   0.003875  -0.001105  11.866000   0.000000   0.002144  17.617900  -1.777220  -5.577850  17.704500  -0.000370  -0.002003  11.791200   0.000151   0.005108  17.555600  -3.482200 -10.873200  17.887000   0.003196  -0.003872  11.912700  -0.011608   0.001320  27.836200  -5.384190 -10.076200  42.466800  -0.004939  -0.003552  28.282900  -0.009364  -0.000965   0.032499   1.568840  -0.623413   0.643644   1.655870  15.122100  -5.048400  -3.234840   5.468010   0.000000   0.000000   0.000000   2.023100   0.283777  -5.628680  -1.345200   5.205550  -9.128300  -9.045520   0.028867  -2.064920  -0.000000   0.000000   0.000000
 -0.050514  90.009000   0.875039  -0.450886  -2.285900  -0.346877  -0.092108   1.264090  -1.154990  -0.158760   2.529780  -2.308790   2.979710  -0.113058   0.002062   4.887490  -0.227464   6.889290  -2.653010   0.520571   6.540070 -77.064000  18.916100   3.559580  -3.815830  -7.590260 -13.912300   8.569290  -3.479100   8.344090  49.046400  38.708400 -78.430600 -20.354800   0.003512   0.001349  -5.177400   0.000317  -0.002525 -14.080000   2.020850  -8.002930 -11.635700   0.001806   0.002155  -8.144960   0.001862  -0.002354 -19.009600   0.353301  -1.025700 -19.012800   0.003580  -0.001910 -12.662500   0.003771  -0.000650 -16.490000  -0.205380   0.691703 -16.491300   0.002204  -0.004767 -10.983200  -0.001397   0.000195 -19.472800  -1.167710   3.299510 -29.259600   0.001686   0.002183 -19.486900   0.000396   0.001805  10.664300   3.461700   7.011540  70.131500   9.722780  -2.088920   2.607690 -10.976100   8.385650 -15.171000 -19.170500   3.190790 -35.736300  26.553700  65.511800  28.823200  -0.001628  -0.016719   9.411600  -0.008321  -0.012053  20.672100  -1.724960  -4.563220  16.969700   0.003874  -0.001133  11.878800   0.000000   0.002136  17.626600  -1.775400  -5.568630  17.712600  -0.000377  -0.002019  11.796600   0.000146   0.005100  17.556200  -3.482470 -10.870700  17.887400   0.003195  -0.003882  11.913000  -0.011636   0.001314  27.801400  -5.377680 -10.076300  42.413700  -0.004947  -0.003555  28.247500  -0.009381  -0.000971   0.046346   1.584400  -0.636835   0.639123   1.642160  15.121900  -5.060820  -3.225740   5.437840  -0.000000   0.000000  -0.000000   2.030790   0.284698  -5.644360  -1.345600   5.215730  -9.120990  -9.054530   0.028476  -2.103120  -0.000000   0.000000   0.000000
